# xmcd
#
# Track frame offsets:
#	150
#	19802
#	36891
#	52526
#	68011
#	85260
#	98467
#	118229
#	132999
#	148928
#	168599
#	184418
#	201096
#	214763
#	226188
#	244122
#	264682
#	283446
#	304840
#
# Disc length: 4502 seconds
#
# Revision: 6
# Processed by: cddbd v1.5.2PL0 Copyright (c) Steve Scherf et al.
# Submitted via: audiograbber 1.83.01
#
DISCID=19119413
DTITLE=Celtic Woman - Celtic Woman
DYEAR=2004
DGENRE=Celtic
TTITLE0=Walking In The Air
TTITLE1=May It Be
TTITLE2=Isle Of Inisfree
TTITLE3=Danny Boy
TTITLE4=One World
TTITLE5=Ave Maria
TTITLE6=Send Me A Song
TTITLE7=Walk My Love
TTITLE8=Orinoco Flow
TTITLE9=Someday
TTITLE10=She Moved Thru' The Fair
TTITLE11=Nella Fantasia
TTITLE12=The Butterfly
TTITLE13=Harry's Game
TTITLE14=The Soft Goodbye
TTITLE15=You Raise Me Up
TTITLE16=The Ashoken Farewell/The Contradiction (Live)
TTITLE17=Si Do Mhaimeo I (The Wealthy Widow)
TTITLE18=Various Artist - Data
EXTD=YEAR: 2004
EXTT0=
EXTT1=
EXTT2=
EXTT3=
EXTT4=
EXTT5=
EXTT6=
EXTT7=
EXTT8=
EXTT9=
EXTT10=
EXTT11=
EXTT12=
EXTT13=
EXTT14=
EXTT15=
EXTT16=
EXTT17=
EXTT18=Data
PLAYORDER=
